<?xml version="1.0" standalone="no"?>
<!DOCTYPE svg PUBLIC "-//W3C//DTD SVG 1.0//EN" "http://www.w3.org/TR/2001/REC-SVG-20010904/DTD/svg10.dtd">
<svg xmlns="http://www.w3.org/2000/svg" xmlns:xlink="http://www.w3.org/1999/xlink" id="body_1" width="307" height="307">

<g transform="matrix(0.44948757 0 0 0.44948757 0 0)">
	<g transform="matrix(0.13339843 0 -0 -0.13339844 0 683)">
	</g>
    <path transform="matrix(0.13339843 0 -0 -0.13339844 0 683)"  d="M2235 5104C 1655 5026 1162 4783 749 4370C 338 3960 86 3447 15 2880C -5 2719 -5 2399 15 2243C 88 1671 336 1164 745 754C 890 609 991 525 1145 423C 1486 196 1888 51 2298 9C 2445 -6 2820 3 2955 25C 3497 112 3977 357 4365 745C 4761 1140 4994 1589 5091 2145C 5121 2315 5129 2694 5106 2870C 5028 3462 4787 3953 4370 4370C 3957 4784 3453 5032 2877 5105C 2730 5124 2375 5123 2235 5104zM2850 4794C 3409 4720 3922 4439 4282 4010C 4629 3597 4810 3100 4810 2560C 4810 2107 4686 1693 4441 1324C 4014 681 3322 308 2556 309C 1950 310 1400 539 970 970C 537 1402 310 1950 310 2560C 310 2976 413 3356 620 3703C 1084 4483 1960 4911 2850 4794z" stroke="none" fill="#000000" fill-rule="nonzero" />
	<g transform="matrix(0.13339843 0 -0 -0.13339844 0 683)">
	</g>
    <path transform="matrix(0.13339843 0 -0 -0.13339844 0 683)"  d="M1511 3890C 1392 3847 1303 3766 1248 3651C 1207 3566 1196 3437 1225 3383C 1251 3335 1297 3310 1360 3310C 1450 3310 1501 3357 1515 3455C 1524 3518 1546 3556 1590 3583C 1622 3603 1641 3605 1793 3609L1793 3609L1960 3612L1960 2799C 1960 2335 1955 1953 1950 1911C 1936 1808 1895 1723 1821 1649C 1742 1571 1663 1533 1544 1519C 1445 1507 1408 1490 1379 1444C 1353 1402 1353 1315 1379 1276C 1413 1224 1447 1210 1536 1210C 1640 1210 1752 1238 1860 1292C 1929 1326 1963 1352 2040 1430C 2118 1507 2144 1541 2178 1610C 2263 1781 2260 1737 2260 2732L2260 2732L2260 3610L2560 3610L2860 3610L2862 2573L2865 1535L2899 1465C 2944 1373 3023 1294 3115 1249C 3183 1216 3188 1215 3310 1215C 3432 1215 3437 1216 3505 1249C 3597 1294 3676 1374 3720 1465C 3763 1554 3774 1682 3745 1737C 3719 1785 3673 1810 3610 1810C 3519 1810 3469 1763 3455 1664C 3443 1574 3389 1520 3312 1520C 3258 1520 3216 1544 3187 1590L3187 1590L3165 1625L3162 2618L3160 3610L3487 3610C 3791 3610 3817 3611 3844 3629C 3890 3660 3910 3698 3910 3760C 3910 3822 3890 3860 3844 3891C 3816 3909 3776 3910 2690 3910C 1605 3909 1563 3909 1511 3890z" stroke="none" fill="#000000" fill-rule="nonzero" />
</g>
</svg>